<?xml version="1.0" encoding="UTF-8" standalone="no"?>
<!-- Created with Inkscape (http://www.inkscape.org/) -->

<svg
   xmlns:dc="http://purl.org/dc/elements/1.1/"
   xmlns:cc="http://creativecommons.org/ns#"
   xmlns:rdf="http://www.w3.org/1999/02/22-rdf-syntax-ns#"
   xmlns:svg="http://www.w3.org/2000/svg"
   xmlns="http://www.w3.org/2000/svg"
   xmlns:sodipodi="http://sodipodi.sourceforge.net/DTD/sodipodi-0.dtd"
   xmlns:inkscape="http://www.inkscape.org/namespaces/inkscape"
   version="1.0"
   width="300"
   height="329.93881"
   id="svg2"
   inkscape:version="0.48.4 r9939"
   sodipodi:docname="Circle_diameter_circumference.svg">
  <metadata
     id="metadata12">
    <rdf:RDF>
      <cc:Work
         rdf:about="">
        <dc:format>image/svg+xml</dc:format>
        <dc:type
           rdf:resource="http://purl.org/dc/dcmitype/StillImage" />
      </cc:Work>
    </rdf:RDF>
  </metadata>
  <sodipodi:namedview
     pagecolor="#ffffff"
     bordercolor="#223493"
     borderopacity="1"
     objecttolerance="10"
     gridtolerance="10"
     guidetolerance="10"
     inkscape:pageopacity="0"
     inkscape:pageshadow="2"
     inkscape:window-width="109"
     inkscape:window-height="890"
     id="namedview10"
     showgrid="false"
     fit-margin-top="5"
     fit-margin-left="5"
     fit-margin-right="5"
     fit-margin-bottom="5"
     inkscape:zoom="1.4833529"
     inkscape:cx="302.9351"
     inkscape:cy="165.92186"
     inkscape:window-x="52"
     inkscape:window-y="0"
     inkscape:window-maximized="0"
     inkscape:current-layer="svg2" />
  <defs
     id="defs4">
    <style
       type="text/css"
       id="style6" />
    <path
       d="m 50,225 c 0,-82.84271 67.15729,-150 150,-150 82.84271,0 150,67.15729 150,150"
       id="arc"
       inkscape:connector-curvature="0" />
  </defs>
  <circle
     cx="200"
     cy="225"
     r="150"
     id="crc"
     style="fill:none;stroke:#000000;stroke-width:1"
     sodipodi:cx="200"
     sodipodi:cy="225"
     sodipodi:rx="150"
     sodipodi:ry="150"
     transform="translate(-44.5,-50.561202)" />
  <path
     d="m 5.5,174.4388 300,0 -300,0 z"
     id="dmtr"
     style="fill:#ff0000;stroke:#223493;stroke-width:1"
     inkscape:connector-curvature="0" />
  <path
     d="m 87.09499,30.216641 1.89834,-0.463183 c 0.37675,1.561056 0.30018,2.943991 -0.22971,4.148808 -0.52992,1.204829 -1.45375,2.155906 -2.77149,2.853234 -1.36379,0.721695 -2.61987,1.030993 -3.76825,0.927893 -1.14838,-0.103094 -2.22417,-0.563169 -3.22739,-1.380226 -1.00322,-0.817049 -1.82457,-1.829783 -2.46404,-3.038207 -0.69733,-1.317743 -1.05384,-2.600401 -1.06953,-3.847979 -0.0157,-1.247556 0.3064,-2.371863 0.96623,-3.372924 0.65984,-1.001033 1.54793,-1.796933 2.66428,-2.387701 1.26596,-0.669908 2.50105,-0.91101 3.70526,-0.723305 1.2042,0.187739 2.28514,0.775837 3.24281,1.764297 l -1.44308,1.260845 c -0.7807,-0.765383 -1.56128,-1.210428 -2.34174,-1.335137 -0.78047,-0.124677 -1.59365,0.03679 -2.43954,0.484409 -0.97249,0.514639 -1.66197,1.177813 -2.06843,1.989524 -0.40647,0.811737 -0.53422,1.680372 -0.38327,2.605908 0.15096,0.925557 0.44721,1.805521 0.88875,2.639897 0.56944,1.076074 1.22336,1.932495 1.96177,2.569265 0.7384,0.63678 1.54354,0.9786 2.4154,1.025459 0.87187,0.04687 1.69334,-0.133724 2.46443,-0.541774 0.93796,-0.496348 1.58894,-1.187029 1.95295,-2.072044 0.36399,-0.885002 0.37941,-1.920687 0.0462,-3.107059 l 0,0 z m 6.50188,2.547822 -5.83492,-13.073377 1.73004,-0.772152 5.83492,13.073377 -1.73004,0.772152 z m 4.7846,-2.183557 -4.94506,-13.435245 5.95696,-2.19256 c 1.1975,-0.440744 2.15226,-0.655145 2.86428,-0.643204 0.71201,0.01197 1.3668,0.254852 1.96438,0.72863 0.59756,0.473811 1.0324,1.080345 1.30451,1.819605 0.3508,0.953127 0.33797,1.870116 -0.0385,2.750969 -0.37647,0.880876 -1.17667,1.647145 -2.40059,2.298809 0.55364,0.05291 0.99314,0.144363 1.31849,0.274352 0.69472,0.28542 1.40581,0.700089 2.13326,1.244009 l 3.68286,2.796502 -2.23615,0.823053 -2.80674,-2.140796 c -0.81617,-0.615329 -1.47098,-1.074994 -1.96442,-1.378998 -0.49345,-0.303989 -0.90455,-0.492612 -1.23328,-0.56587 -0.32874,-0.07324 -0.64295,-0.09287 -0.94262,-0.05889 -0.21736,0.03145 -0.55516,0.1315 -1.01338,0.30015 l -2.06203,0.758963 2.19593,5.966129 -1.77792,0.654394 z m -0.9847,-8.160169 3.82162,-1.406611 c 0.81259,-0.299078 1.41708,-0.616959 1.81347,-0.953645 0.39638,-0.336664 0.64568,-0.733671 0.74792,-1.191022 0.10222,-0.457327 0.0735,-0.902891 -0.0861,-1.336694 -0.23388,-0.635395 -0.6568,-1.072883 -1.26874,-1.312465 -0.61196,-0.239553 -1.41587,-0.176061 -2.41175,0.190475 l -4.25236,1.56515 1.63599,4.444812 z m 23.19044,-4.121424 1.95397,-0.01599 c 0.009,1.605851 -0.38222,2.934468 -1.17402,3.985856 -0.79183,1.051395 -1.90897,1.765548 -3.35141,2.142459 -1.49286,0.390083 -2.78639,0.403409 -3.8806,0.03998 -1.09423,-0.363426 -2.03602,-1.057713 -2.82539,-2.082861 -0.78937,-1.025141 -1.35687,-2.1991 -1.70252,-3.521881 -0.37691,-1.442446 -0.4301,-2.772664 -0.15957,-3.990659 0.27052,-1.217972 0.8416,-2.238598 1.71321,-3.061882 0.87161,-0.823255 1.91841,-1.394542 3.14041,-1.713865 1.38576,-0.362084 2.64323,-0.313838 3.77242,0.144738 1.12917,0.458609 2.04664,1.278692 2.7524,2.460251 l -1.69354,0.896731 c -0.5846,-0.923873 -1.24247,-1.5359 -1.97361,-1.836083 -0.73115,-0.300153 -1.5597,-0.329263 -2.48563,-0.08733 -1.06453,0.278174 -1.88759,0.765765 -2.4692,1.462776 -0.58161,0.697036 -0.90495,1.513305 -0.97004,2.448809 -0.0651,0.935526 0.0217,1.859955 0.26036,2.773291 0.30779,1.177906 0.74813,2.161354 1.32103,2.950347 0.57289,0.789002 1.27831,1.306174 2.11626,1.551516 0.83794,0.24535 1.67894,0.257746 2.523,0.03719 1.02672,-0.26828 1.81861,-0.791465 2.37568,-1.569556 0.55706,-0.778082 0.80932,-1.782694 0.75679,-3.013839 l 0,0 z m 12.42519,-11.691641 1.87071,-0.299453 1.30741,8.167506 c 0.22741,1.420721 0.24729,2.574661 0.0597,3.461823 -0.18767,0.887171 -0.65902,1.659864 -1.41407,2.31808 -0.75507,0.658222 -1.81403,1.09641 -3.17688,1.314567 -1.3243,0.211984 -2.44404,0.157164 -3.35924,-0.16446 -0.91521,-0.321623 -1.62202,-0.885942 -2.12042,-1.692961 -0.49841,-0.807013 -0.8675,-1.95945 -1.10726,-3.457313 l -1.30741,-8.167505 1.87072,-0.299453 1.30586,8.157863 c 0.19654,1.227863 0.45549,2.114419 0.77684,2.659669 0.32133,0.545259 0.78525,0.930879 1.39175,1.156864 0.60649,0.22599 1.31153,0.274669 2.1151,0.146035 1.37571,-0.220213 2.30616,-0.688928 2.79135,-1.406147 0.48517,-0.71721 0.58576,-1.96296 0.30175,-3.737253 l -1.30586,-8.157862 z m 7.22426,13.44264 -0.79202,-14.294481 2.84719,-0.157757 3.94428,9.933722 c 0.36424,0.92528 0.63083,1.617972 0.79978,2.078077 0.13369,-0.529037 0.34489,-1.306886 0.63359,-2.333548 L 150.5409,5.14101 153.08582,5 l 0.79203,14.294481 -1.82338,0.10103 -0.6629,-11.964071 -3.49088,12.194224 -1.70637,0.09455 -4.80853,-11.939763 0.67425,12.168835 -1.82338,0.10103 z m 16.82337,-0.669446 0.5662,-14.305206 9.65065,0.381975 -0.0668,1.688132 -7.7576,-0.307048 -0.17534,4.430125 6.71349,0.265722 -0.0668,1.688131 -6.71349,-0.265722 -0.25722,6.498818 -1.89305,-0.07493 z m 12.15723,0.589797 1.77448,-14.20601 10.27174,1.283044 -0.20941,1.676426 -8.39181,-1.048223 -0.54348,4.350954 7.85885,0.98165 -0.20819,1.666735 -7.85885,-0.98165 -0.604,4.83547 8.72129,1.089377 -0.20941,1.676426 -10.60121,-1.324199 z m 13.23622,1.774191 3.08581,-13.979886 6.19845,1.3682 c 1.24604,0.275055 2.16557,0.609702 2.75861,1.003942 0.59301,0.394262 1.01325,0.952057 1.26074,1.673385 0.24746,0.721348 0.2863,1.466638 0.11651,2.235873 -0.21892,0.991758 -0.7245,1.756888 -1.51673,2.295391 -0.79226,0.538513 -1.87944,0.751902 -3.26153,0.64017 0.43759,0.34328 0.75827,0.657416 0.96206,0.942409 0.43091,0.615158 0.80586,1.347966 1.12485,2.198428 l 1.59183,4.341649 -2.3268,-0.513601 -1.20799,-3.316858 c -0.35516,-0.958452 -0.65844,-1.698777 -0.90986,-2.220977 -0.25144,-0.522194 -0.49578,-0.902817 -0.73302,-1.14187 -0.23726,-0.239045 -0.49121,-0.425109 -0.76185,-0.558193 -0.19998,-0.09081 -0.53837,-0.188833 -1.01516,-0.294084 l -2.14562,-0.473608 -1.37031,6.207985 -1.84999,-0.408355 z m 3.57393,-7.401691 3.97654,0.877754 c 0.84552,0.186642 1.52598,0.245169 2.04139,0.175582 0.51538,-0.06958 0.9395,-0.269314 1.27234,-0.599214 0.33283,-0.329886 0.54906,-0.72052 0.64871,-1.171902 0.14593,-0.661159 0.0259,-1.257689 -0.36003,-1.78959 -0.38598,-0.531883 -1.09709,-0.912196 -2.13333,-1.140941 l -4.42474,-0.976685 -1.02088,4.624996 z m 10.51363,10.688636 4.37597,-13.631229 9.85614,3.164067 -0.5164,1.608597 -8.05228,-2.584984 -1.34025,4.174913 7.54088,2.42081 -0.51342,1.599299 -7.54088,-2.420811 -1.4895,4.639825 8.36843,2.686473 -0.5164,1.608597 -10.17229,-3.265557 z m 12.63276,4.178648 5.62781,-13.163862 1.78691,0.763939 2.49561,13.29128 4.41856,-10.335337 1.67018,0.714033 -5.62781,13.163862 -1.78691,-0.763939 -2.49177,-13.30026 -4.4224,10.344317 -1.67018,-0.714033 z m 24.62263,6.329808 1.43218,1.329308 c -1.0954,1.17428 -2.29182,1.872088 -3.58928,2.093426 -1.29747,0.221329 -2.60012,-0.02588 -3.90794,-0.741636 -1.35353,-0.740767 -2.30353,-1.618781 -2.85,-2.634045 -0.54648,-1.015267 -0.75503,-2.166578 -0.62565,-3.453936 0.12937,-1.287354 0.52225,-2.530694 1.17862,-3.730022 0.71575,-1.307827 1.58995,-2.311866 2.62258,-3.012123 1.03263,-0.700238 2.14841,-1.050686 3.34737,-1.051343 1.19894,-6.38e-4 2.35239,0.302219 3.46035,0.908573 1.25642,0.687636 2.13793,1.585688 2.64454,2.694157 0.50658,1.108481 0.61111,2.334596 0.31359,3.678348 l -1.8472,-0.509983 c 0.20881,-1.07317 0.15032,-1.969802 -0.17547,-2.689896 -0.32582,-0.720083 -0.90848,-1.309857 -1.748,-1.769325 -0.96518,-0.528215 -1.89845,-0.738405 -2.79982,-0.630571 -0.90138,0.107851 -1.69675,0.479664 -2.38609,1.115439 -0.68936,0.63579 -1.26064,1.367734 -1.71384,2.195832 -0.58449,1.067973 -0.93912,2.085476 -1.06388,3.05251 -0.12477,0.967039 0.0334,1.82731 0.47452,2.580815 0.4411,0.753504 1.04429,1.33967 1.80958,1.7585 0.9309,0.509467 1.86593,0.672378 2.80509,0.488731 0.93914,-0.183652 1.81206,-0.741237 2.61875,-1.672759 l 0,0 z m 1.26105,6.609342 8.00636,-11.868347 8.58148,5.789047 -0.94482,1.400562 -7.0109,-4.729542 -2.45215,3.634985 6.56564,4.429167 -0.93936,1.392466 -6.56564,-4.429167 -2.72522,4.039771 7.28616,4.915229 -0.94482,1.40056 -8.85673,-5.974731 z"
     id="text12"
     style="font-size:16px;font-style:normal;font-weight:normal;fill:#000000;fill-opacity:1;stroke:none;font-family:Roboto Mono"
     inkscape:connector-curvature="0" />
  <text
     x="105.5"
     y="169.4388"
     id="text16"
     style="font-size:16px;font-style:normal;font-weight:normal;fill:#000000;fill-opacity:1;stroke:none;font-family:Roboto Mono">DIAMETER</text>
</svg>
